<svg xmlns="http://www.w3.org/2000/svg" viewBox="0 0 256 256" width="256" height="256">
  <!-- 앱 아이콘 배경 (딥 인디고) -->
  <rect width="256" height="256" rx="52" fill="#1e1b4b"/>

  <!-- 노트패드 종이 -->
  <rect x="36" y="38" width="184" height="180" rx="18" fill="#f8fafc"/>

  <!-- 왼쪽 바인딩 스트립 -->
  <rect x="36" y="38" width="44" height="180" rx="18" fill="#4f46e5"/>
  <rect x="60" y="38" width="20" height="180" fill="#4f46e5"/>

  <!-- 바인딩 링 구멍 3개 -->
  <circle cx="58" cy="88"  r="10" fill="#1e1b4b"/>
  <circle cx="58" cy="128" r="10" fill="#1e1b4b"/>
  <circle cx="58" cy="168" r="10" fill="#1e1b4b"/>

  <!-- 콘텐츠 라인들 (마크다운 문서 표현) -->
  <!-- H1 제목 라인 (굵음) -->
  <rect x="98" y="68"  width="116" height="14" rx="7"   fill="#1e1b4b"/>
  <!-- 본문 라인 -->
  <rect x="98" y="96"  width="92"  height="9"  rx="4.5" fill="#94a3b8"/>
  <rect x="98" y="113" width="108" height="9"  rx="4.5" fill="#94a3b8"/>
  <!-- 코드 블록 -->
  <rect x="98" y="134" width="116" height="36" rx="10"  fill="#e0e7ff"/>
  <rect x="110" y="146" width="64" height="7"  rx="3.5" fill="#6366f1"/>
  <rect x="110" y="157" width="48" height="7"  rx="3.5" fill="#818cf8"/>
  <!-- 본문 라인 -->
  <rect x="98" y="184" width="76"  height="9"  rx="4.5" fill="#94a3b8"/>
  <rect x="98" y="200" width="96"  height="9"  rx="4.5" fill="#c7d2fe"/>
</svg>
